<svg width="125" height="95" viewBox="0 0 125 95" fill="none" xmlns="http://www.w3.org/2000/svg">
<g id="&#240;&#159;&#166;&#134; icon &#34;star&#34;">
<g id="Group">
<path id="Vector" d="M100.212 30.1484L100.227 30.1512L100.243 30.1537L115.603 32.6578C120.262 33.4215 122.607 35.38 123.275 37.4456C123.942 39.5081 123.19 42.4599 119.85 45.7955C119.849 45.7964 119.848 45.7973 119.847 45.7982L107.863 57.6594C106.642 58.8678 105.751 60.5767 105.248 62.3195C104.745 64.0623 104.583 66.0002 104.988 67.7138C104.988 67.7148 104.988 67.7157 104.988 67.7167L108.422 82.3817L108.422 82.382C109.745 88.0285 108.69 91.1969 106.955 92.4515C105.209 93.7135 101.822 93.737 96.7885 90.7654L96.7863 90.7641L82.3979 82.3029C82.3963 82.302 82.3947 82.301 82.3931 82.3001C80.8071 81.3525 78.792 80.9273 76.8683 80.9273C74.9446 80.9273 72.9295 81.3525 71.3435 82.3001C71.3419 82.301 71.3403 82.302 71.3387 82.3029L56.9537 90.7621C56.9535 90.7623 56.9533 90.7624 56.953 90.7625C51.9184 93.7055 48.5274 93.6863 46.7791 92.4274C45.047 91.1802 43.9912 88.0292 45.3147 82.382L45.3148 82.3817L48.7487 67.7134L48.756 67.6822L48.762 67.6507C49.0874 65.933 48.8979 64.0017 48.3798 62.2564C47.8628 60.5153 46.9737 58.8082 45.7529 57.5998L33.7643 45.734C30.4252 42.4291 29.674 39.4923 30.3409 37.4307C31.0104 35.3613 33.3596 33.3903 38.0162 32.5975C38.0178 32.5972 38.0194 32.597 38.0211 32.5967L53.3708 30.0945C53.3713 30.0944 53.3718 30.0943 53.3723 30.0942C54.9649 29.8373 56.599 29.0403 57.9675 28.0327C59.3333 27.0271 60.5739 25.709 61.2819 24.2748L69.7694 7.47347C69.77 7.47237 69.7705 7.47126 69.7711 7.47016C71.9781 3.15989 74.6021 1.49459 76.8044 1.50001C79.008 1.50544 81.6356 3.18541 83.8441 7.52794C83.8443 7.52847 83.8446 7.52901 83.8449 7.52955L92.3342 24.3344C93.045 25.7741 94.2899 27.0778 95.6534 28.0734C97.0227 29.0734 98.6441 29.8596 100.212 30.1484Z" fill="#C3FF45" stroke="black" stroke-width="3"/>
<path id="Vector_2" d="M40.6647 8.56209H4.5183C2.86213 8.56209 1.5 7.19182 1.5 5.59006C1.5 3.98829 2.86213 2.61803 4.5183 2.61803H40.6647C42.3209 2.61803 43.683 3.98829 43.683 5.59006C43.683 7.19182 42.3209 8.56209 40.6647 8.56209Z" fill="#C3FF45" stroke="black" stroke-width="3"/>
<path id="Vector_3" d="M22.5915 92.04H4.5183C2.86213 92.04 1.5 90.6697 1.5 89.068C1.5 87.4662 2.86213 86.0959 4.5183 86.0959H22.5915C24.2477 86.0959 25.6098 87.4662 25.6098 89.068C25.6098 90.6697 24.2477 92.04 22.5915 92.04Z" fill="#C3FF45" stroke="black" stroke-width="3"/>
<path id="Vector_4" d="M10.5427 50.3011H4.5183C2.86213 50.3011 1.5 48.9308 1.5 47.329C1.5 45.7273 2.86213 44.357 4.5183 44.357H10.5427C12.1989 44.357 13.561 45.7273 13.561 47.329C13.561 48.9308 12.1989 50.3011 10.5427 50.3011Z" fill="#C3FF45" stroke="black" stroke-width="3"/>
</g>
</g>
</svg>
